PathFileType	4	(X/Y/Z)	C:\Users\Basilio\Documents\Thesis Gigler\squatting_fais\c3dfiles\058\SLS_front_pre1\markers_experimental.trc
DataRate	CameraRate	NumFrames	NumMarkers	Units	OrigDataRate	OrigDataStartFrame	OrigNumFrames
200.000000	200.000000	4	61	mm	200.000000	301	1204
Frame#	Time	FHD			LBHD			RBHD			C7			T10			CLAV			LSHO			LUUPA			LMUPA			LDUPA			LLEP			LMEP			LUL			LRFIN			RSHO			RUPA1			RMUPA			RDUPA			RLEP			RMEP			RRAD			RUL			RUFIN			LASI			RASI			USACR			LSACR			RSACR			LTHI1			LTHI2			LTHI3			LTHI4			LLFC			LMFC			LTIB1			LTIB2			LTIB3			LTIB4			LLMAL			LMMAL			LHEE			LMT1			LMT2			LMT5			RTHI			RTHI2			RTHI3			RTHI4			RLFC			RMFC			RTIB1			RTIB2			RTIB3			RTIB4			RLMAL			RMMAL			RHEE			RMT1			RMT2			RMT5			LRAD			
		X1	Y1	Z1	X2	Y2	Z2	X3	Y3	Z3	X4	Y4	Z4	X5	Y5	Z5	X6	Y6	Z6	X7	Y7	Z7	X8	Y8	Z8	X9	Y9	Z9	X10	Y10	Z10	X11	Y11	Z11	X12	Y12	Z12	X13	Y13	Z13	X14	Y14	Z14	X15	Y15	Z15	X16	Y16	Z16	X17	Y17	Z17	X18	Y18	Z18	X19	Y19	Z19	X20	Y20	Z20	X21	Y21	Z21	X22	Y22	Z22	X23	Y23	Z23	X24	Y24	Z24	X25	Y25	Z25	X26	Y26	Z26	X27	Y27	Z27	X28	Y28	Z28	X29	Y29	Z29	X30	Y30	Z30	X31	Y31	Z31	X32	Y32	Z32	X33	Y33	Z33	X34	Y34	Z34	X35	Y35	Z35	X36	Y36	Z36	X37	Y37	Z37	X38	Y38	Z38	X39	Y39	Z39	X40	Y40	Z40	X41	Y41	Z41	X42	Y42	Z42	X43	Y43	Z43	X44	Y44	Z44	X45	Y45	Z45	X46	Y46	Z46	X47	Y47	Z47	X48	Y48	Z48	X49	Y49	Z49	X50	Y50	Z50	X51	Y51	Z51	X52	Y52	Z52	X53	Y53	Z53	X54	Y54	Z54	X55	Y55	Z55	X56	Y56	Z56	X57	Y57	Z57	X58	Y58	Z58	X59	Y59	Z59	X60	Y60	Z60	X61	Y61	Z61	

302	1.505	-321.2176818847657	1799.48681640625	-612.3123779296876	-478.865203857422	1755.163208007813	-686.7116088867189	-307.6839904785157	1805.454711914063	-754.1611328125001	-489.4254760742189	1585.997802734375	-702.5740356445314	-476.9581298828126	1277.929809570313	-693.5693359375001	-327.7203674316407	1550.65771484375	-685.7758178710939	-343.4282226562501	1597.651733398438	-844.1929321289065	-200.5217742919922	1507.882934570313	-964.1352539062502	-170.6463623046875	1546.305297851563	-948.101745605469	-130.6356658935547	1505.950805664063	-967.130065917969	-54.77977752685548	1507.216918945313	-960.7774658203127	-48.78725814819337	1452.291625976563	-927.0882568359377	216.8939514160157	1535.488159179688	-936.866638183594	314.6886291503907	1537.017333984375	-857.924011230469	-361.9241027832032	1594.386962890625	-527.9979248046876	-213.5263671875001	1490.316528320313	-414.8260803222657	-186.7884674072266	1528.827514648438	-434.5855102539064	-143.9729614257813	1495.068359375	-412.0694274902345	-77.3630828857422	1481.962768554688	-415.349822998047	-69.68686676025392	1425.581909179688	-467.2306518554689	195.7189636230469	1503.880981445313	-493.2461547851564	194.2952117919922	1512.719482421875	-411.9288024902345	289.3298339843751	1521.723388671875	-476.7823791503907	-294.1173095703126	1111.996337890625	-852.1558227539065	-266.6475830078126	1083.811889648438	-613.6195678710939	-477.4480285644532	1152.657470703125	-695.3108520507814	-485.8961486816407	1122.786865234375	-724.8840942382814	-473.2091064453126	1117.835571289063	-668.9613647460939	-228.5191955566407	865.4205322265627	-937.391540527344	-168.3759155273438	806.9067993164065	-930.1909790039065	-130.6120758056641	822.2759399414065	-899.3134765625002	-170.1791534423828	746.7572021484376	-929.2349243164065	-122.6615371704102	658.0488281250001	-922.2798461914065	-113.5066146850586	644.8383178710939	-795.7910766601565	-13.46771144866944	559.8143920898439	-887.4023437500002	-36.46733474731446	509.083465576172	-951.9527587890627	-0.2840679287910462	516.8501586914064	-925.2226562500002	37.34008407592774	443.8088989257814	-905.1396484375002	77.35754394531251	241.6002349853516	-938.5381469726565	89.23110198974611	259.2947387695313	-847.5598754882815	40.07003784179688	176.576171875	-892.449157714844	237.8377685546876	271.4760742187501	-862.244567871094	243.6065979003907	280.3446044921876	-908.0858154296877	213.8003692626954	241.2039947509766	-964.2132568359377	-352.1757812500001	859.226501464844	-562.3115234375001	-311.3949890136719	807.2825317382815	-567.2592773437501	-278.7742919921876	810.3551025390627	-571.1474609375001	-335.7174682617188	728.4471435546876	-587.1804199218751	-319.6072692871094	550.4930419921876	-619.2066650390626	-288.7630920410157	550.0816040039064	-752.9480590820314	-284.4359130859376	351.6263122558594	-723.2127075195314	-323.2459411621094	271.6180419921876	-661.5634155273439	-289.6393432617188	265.4285583496094	-696.1224365234376	-304.8857421875001	224.7471466064454	-733.3413085937501	-370.5572204589844	119.886589050293	-697.5783691406251	-342.1293640136719	142.9297485351563	-785.7012939453127	-437.9759826660157	102.1532897949219	-758.5710449218751	-228.0430755615235	57.940486907959	-772.0277099609377	-221.5194854736329	60.46433258056642	-719.7812500000001	-270.9355163574219	30.73827934265137	-667.2546997070314	nan	nan	nan	
303	1.51	-321.1557312011719	1799.428100585938	-612.3231811523439	-478.7702941894532	1755.018920898438	-686.6704711914064	-307.6852722167969	1805.39111328125	-754.1464233398439	-489.3400878906251	1585.963745117188	-702.6056518554689	-477.0976562500001	1277.885131835938	-693.5546264648439	-327.6409912109376	1550.602294921875	-685.8126831054689	-343.3045349121094	1597.448974609375	-844.1762695312502	-200.4241027832032	1507.78955078125	-964.1184692382815	-170.5743255615235	1546.23291015625	-948.0764770507815	-130.5513000488282	1505.887817382813	-967.0911254882815	-54.70922470092775	1507.099365234375	-960.6992797851565	-48.7625198364258	1452.254760742188	-926.9791259765627	217.0837097167969	1535.42822265625	-936.8779907226565	314.7877502441407	1536.942260742188	-857.8215942382815	-361.8993835449219	1594.325927734375	-528.0578613281251	-213.4941864013672	1490.251708984375	-414.7822875976564	-186.5465545654297	1528.587158203125	-434.5368957519532	-143.8863220214844	1494.979614257813	-412.1482238769532	-77.25897216796876	1481.943237304688	-415.3230895996095	-69.64379119873048	1425.563720703125	-467.174774169922	196.0515136718751	1503.910766601563	-493.1778259277345	194.2436523437501	1512.587768554688	-411.8283996582032	289.4776000976563	1521.636596679688	-476.6115112304689	-294.2360839843751	1111.947021484375	-852.0545043945315	-267.1439208984376	1083.754272460938	-613.5031127929689	-477.873260498047	1152.483154296875	-695.2541503906251	-486.1179809570314	1122.73583984375	-724.8877563476564	-473.5080566406251	1117.772216796875	-668.9878540039064	-228.593246459961	865.3547363281252	-937.3131103515627	-168.4434509277344	806.8459472656252	-930.1408691406252	-130.7176055908203	822.082214355469	-899.1640625000002	-170.2379302978516	746.6935424804689	-929.197448730469	-122.8091735839844	658.0291137695314	-922.243591308594	-113.5522155761719	644.7989501953126	-795.7084960937502	-13.46413040161133	559.8078613281251	-887.4323730468752	-36.49620819091798	509.103240966797	-951.9523925781252	-0.293383151292801	516.8527832031251	-925.200622558594	37.44557189941407	443.8871459960939	-905.0750732421877	77.30307006835939	241.6098022460938	-938.5462646484377	89.17935180664064	259.2547607421876	-847.5930175781252	40.00804901123048	176.5466766357422	-892.5029296875002	237.7659454345704	271.4253845214844	-862.233581542969	243.5048522949219	280.2874450683594	-908.071472167969	213.7072753906251	241.1676177978516	-964.224304199219	-352.3213806152344	858.886901855469	-562.1809082031251	-311.4132385253907	806.950866699219	-567.2088623046876	-278.9010925292969	810.2089843750002	-571.0114135742189	-335.6625061035157	728.3512573242189	-587.1766967773439	-319.2366638183594	550.3875732421876	-619.1815185546876	-288.3383178710938	550.1149902343751	-752.8973388671876	-284.1582946777344	351.6020202636719	-723.1735839843751	-323.2268981933594	271.4786987304688	-661.5476074218751	-289.5751647949219	265.3834838867188	-696.0635986328126	-304.7957763671876	224.6971740722657	-733.3339233398439	-370.5325622558594	119.8780136108399	-697.5379028320314	-342.1000976562501	142.8740386962891	-785.6109619140627	-437.9606933593751	102.1981353759766	-758.5368652343751	-228.3552856445313	58.33485412597658	-771.9497680664065	-221.5317077636719	60.43738555908205	-719.7855834960939	-270.9259033203126	30.72519874572755	-667.2491455078126	nan	nan	nan	
304	1.515	-321.1612243652344	1799.340209960938	-612.3654174804689	-478.7315368652345	1754.889038085938	-686.6456909179689	-307.6514587402344	1805.2998046875	-754.2122802734376	-489.2292480468751	1585.923583984375	-702.5825195312501	-477.2473144531251	1277.86328125	-693.5410766601564	-327.5320129394532	1550.609008789063	-685.7694091796876	-343.2468261718751	1597.361572265625	-844.1607055664065	-200.2199249267579	1507.66748046875	-964.095642089844	-170.4277954101563	1546.143920898438	-947.9949340820315	-130.3589324951172	1505.8095703125	-967.0540161132815	-54.59432220458986	1506.962158203125	-960.7075195312502	-48.72507858276369	1452.224243164063	-926.7280273437502	217.1659393310547	1535.38671875	-936.8238525390627	314.8504638671876	1536.850219726563	-857.7966918945315	-361.8733825683594	1594.306884765625	-528.0560913085939	-213.4152221679688	1490.189575195313	-414.7242126464845	-186.5701904296875	1528.64501953125	-434.6642150878907	-143.9272155761719	1494.824340820313	-412.0321044921876	-77.26395416259767	1481.748779296875	-415.2454223632814	-69.62204742431642	1425.524047851563	-467.150848388672	196.2500915527344	1503.765747070313	-493.1484375000001	194.4686584472657	1512.523803710938	-411.7383422851564	289.5165100097657	1521.541748046875	-476.5154418945314	-294.3682861328126	1111.872436523438	-851.9987792968752	-267.3926086425782	1083.579223632813	-613.4280395507814	-478.2140197753907	1152.477905273438	-695.1845092773439	-486.2875366210939	1122.688354492188	-724.9302368164064	-473.7615051269532	1117.645629882813	-669.0236816406251	-228.7249145507813	865.3193969726565	-937.280212402344	-168.5252532958985	806.8088378906252	-930.073425292969	-130.7297973632813	822.0703735351565	-899.1181640625002	-170.3018188476563	746.6694335937501	-929.2232055664065	-122.8128890991211	658.0074462890626	-922.187683105469	-113.5853729248047	644.7938842773439	-795.6948852539065	-13.51802921295166	559.7914428710939	-887.3854980468752	-36.59471893310548	509.0040588378907	-951.922058105469	-0.3008248805999756	516.8491210937501	-925.1953735351565	37.15941238403321	443.8948059082032	-905.1763916015627	77.14177703857423	241.5501861572266	-938.5300292968752	88.96042633056642	259.1492614746094	-847.5190429687502	39.84088516235352	176.496810913086	-892.4481201171877	237.6988220214844	271.3949584960938	-862.2449340820315	243.3478698730469	280.2989807128907	-908.0471801757815	213.6129608154297	241.1157989501954	-964.226501464844	-352.3828125000001	858.701110839844	-562.1016845703126	-311.3952026367188	806.971618652344	-567.1223754882814	-278.9104614257813	810.093200683594	-570.9360961914064	-335.5441284179688	728.2246093750001	-587.1010742187501	-319.0064086914063	550.3375244140626	-619.0750122070314	-287.8674316406251	550.0485229492189	-752.7966918945314	-283.8730163574219	351.5549316406251	-723.0812377929689	-323.1365356445313	271.5283203125001	-661.5303955078126	-289.3699035644532	265.2831420898438	-695.9574584960939	-304.6953735351563	224.7097778320313	-733.2512817382814	-370.5704345703126	119.9116592407227	-697.4618530273439	-342.0372924804688	142.8711395263672	-785.5563964843752	-437.9815979003907	102.1607513427735	-758.5214843750001	-228.4108123779297	58.3284149169922	-771.9554443359377	-221.5702209472657	60.44672012329103	-719.7521972656251	-270.9281616210938	30.72213935852051	-667.2118530273439	nan	nan	nan	
305	1.52	-321.0477294921876	1799.31396484375	-612.4005737304689	-478.5481872558595	1754.678833007813	-686.6513061523439	-307.5590515136719	1805.201293945313	-754.2760009765626	-489.1375427246095	1585.84716796875	-702.5682983398439	-477.4297790527345	1277.835571289063	-693.5279541015626	-327.4657592773438	1550.529052734375	-685.7857055664064	-343.1612854003907	1597.269653320313	-844.112976074219	-200.0269927978516	1507.53173828125	-964.028747558594	-170.3963928222657	1546.068237304688	-947.9532470703127	-130.3212127685547	1505.741821289063	-966.9707641601565	-54.54862213134767	1506.97509765625	-960.5703125000002	-48.68484115600587	1452.14453125	-926.6135253906252	217.2599334716797	1535.299560546875	-936.737243652344	314.7713623046876	1536.703491210938	-857.8067016601565	-361.7679748535157	1594.293090820313	-527.9713134765626	-213.2684478759766	1490.182861328125	-414.7496337890626	-186.1598510742188	1528.52099609375	-434.5840148925782	-143.9143524169922	1494.828002929688	-412.0201416015626	-77.14186096191408	1481.6171875	-415.185272216797	-69.42074584960939	1425.475463867188	-467.1412658691407	195.8806610107422	1503.721069335938	-492.8929138183595	194.5052642822266	1512.39892578125	-411.6562805175782	289.4727172851563	1521.38916015625	-476.4285278320314	-294.5133666992188	1111.702026367188	-851.8572998046877	-267.6023254394532	1083.485229492188	-613.3776855468751	-478.3808898925782	1152.359008789063	-695.2258300781251	-486.5117797851564	1122.619506835938	-724.9690551757814	-473.9866333007814	1117.519897460938	-669.0991210937501	-228.7275085449219	865.192565917969	-937.2705688476565	-168.6236572265625	806.783142089844	-930.0005493164065	-130.7435150146485	822.0745849609377	-899.067077636719	-170.3835601806641	746.6836547851564	-929.149841308594	-122.8369979858399	657.9859008789064	-922.117614746094	-113.5840759277344	644.7969970703126	-795.6556396484377	-13.62618064880371	559.7489624023439	-887.2996215820315	-36.59629058837891	508.9889526367189	-951.9221801757815	-0.2947572767734528	516.8312377929689	-925.1980590820315	37.30973434448243	443.9841613769532	-905.106140136719	77.0339813232422	241.5018768310547	-938.6107177734377	88.80167388916017	259.0811462402344	-847.5557861328127	39.77659606933594	176.3912353515625	-892.515563964844	237.6455383300782	271.3392333984376	-862.1978759765627	243.3195343017579	280.2596740722657	-907.9836425781252	213.5538787841797	241.1205444335938	-964.181091308594	-352.4300842285157	858.5093994140627	-562.0333251953126	-311.3755798339844	806.8750000000002	-567.0243530273439	-278.9151000976563	810.0449829101565	-570.8496093750001	-335.1120605468751	728.0358276367189	-587.0996093750001	-318.7934875488282	550.2207031250001	-618.9675292968751	-288.4520568847657	549.6231079101564	-753.4595947265626	-283.5533142089844	351.4623107910157	-722.9846191406251	-323.0569458007813	271.3900756835938	-661.4694824218751	-289.0683898925782	265.0412292480469	-695.8489379882814	-304.6956481933594	224.6509857177735	-733.1402587890626	-370.5568847656251	119.9096908569336	-697.4163818359376	-342.0126647949219	142.8684692382813	-785.5609130859377	-437.9267883300782	102.1387405395508	-758.5061645507814	-228.1005554199219	57.98446655273439	-771.9082641601565	-221.5868530273438	60.4827346801758	-719.7431640625001	-270.9232482910157	30.71375274658204	-667.1363525390626	nan	nan	nan	
